<svg aria-hidden="true" style="position: absolute; width: 0; height: 0; overflow: hidden;" version="1.1" xmlns="http://www.w3.org/2000/svg" xmlns:xlink="http://www.w3.org/1999/xlink">
<defs>
<symbol id="icon-baidu" viewBox="0 0 32 32">
<path fill="#2319dc" style="fill: var(--color1, #2319dc)" d="M5.749 16.867c3.48-0.749 3-4.912 2.901-5.821-0.171-1.4-1.821-3.851-4.059-3.653-2.813 0.248-3.224 4.32-3.224 4.32-0.383 1.88 0.909 5.901 4.381 5.153zM12.209 9.879c1.92 0 3.472-2.213 3.472-4.947 0-2.72-1.547-4.933-3.467-4.933s-3.481 2.201-3.481 4.935 1.56 4.947 3.48 4.947zM20.489 10.207c2.573 0.347 4.216-2.4 4.549-4.48 0.333-2.067-1.333-4.48-3.147-4.893-1.827-0.421-4.080 2.499-4.307 4.4-0.24 2.333 0.333 4.653 2.893 4.983zM30.667 13.712c0-0.995-0.817-3.991-3.88-3.991-3.060 0-3.48 2.827-3.48 4.827 0 1.907 0.157 4.56 3.98 4.48 3.807-0.093 3.391-4.32 3.391-5.32zM26.8 22.427c0 0-3.98-3.080-6.301-6.4-3.147-4.903-7.62-2.907-9.112-0.421-1.493 2.511-3.813 4.083-4.14 4.503-0.333 0.413-4.8 2.827-3.805 7.227 1 4.4 4.48 4.32 4.48 4.32s2.56 0.253 5.547-0.413 5.547 0.16 5.547 0.16 6.943 2.333 8.864-2.147c1.899-4.493-1.080-6.813-1.080-6.813z"></path>
</symbol>
<symbol id="icon-coffeescript" viewBox="0 0 32 32">
<path d="M6.187 9.96c2.8 0.707 6.373 1.067 10.68 1.067 4.4 0 7.893-0.36 10.68-1.067 2.973-0.693 4.4-1.627 4.4-2.507 0-0.627-0.64-1.24-1.8-1.707 0.267 0.173 0.467 0.467 0.467 0.787 0 0.893-1.347 1.627-4.053 2.24-2.507 0.547-5.707 0.933-9.6 0.933-3.76 0-7.107-0.387-9.52-0.907-2.6-0.64-3.96-1.333-3.96-2.24 0-0.373 0.173-0.693 0.693-1.067-1.627 0.627-2.507 1.16-2.507 1.96 0.093 0.907 1.547 1.813 4.52 2.507zM12.44 7.080c3.027-0.267 3.907-2.213 7.453-2.533 1.747-0.133 2.853 0.213 2.973 0.827 0.107 0.573-0.76 0.96-1.813 1.040-1.453 0.147-2.053-0.373-2.173-0.867-1.080 0.12-1.253 0.573-1.2 0.893 0.12 0.613 1.427 1.227 3.667 1.013 2.533-0.2 3.387-1.2 3.173-2.2-0.267-1.307-2.213-2.4-5.707-2.067-4.48 0.4-4.453 2.48-7.507 2.733-1.253 0.12-1.947-0.173-2.067-0.667-0.080-0.493 0.533-0.733 1.253-0.787 0.667-0.067 1.48 0.053 1.867 0.267 0.28-0.147 0.373-0.293 0.347-0.467-0.133-0.467-1.053-0.667-2.213-0.587-2.267 0.2-2.267 1.213-2.187 1.667 0.227 1.16 1.973 1.933 4.133 1.733zM27.667 12.2c-2.8 0.653-6.373 1.080-10.68 1.080-4.4 0-7.987-0.453-10.773-1.067-2.507-0.64-3.84-1.347-4.307-2.080 0.24 1.64 0.653 3.227 1.187 4.733-0.64 0.4-1.213 0.893-1.733 1.56-0.852 1.032-1.368 2.367-1.368 3.823 0 0.109 0.003 0.217 0.009 0.325l-0.001-0.015c0.103 1.43 0.818 2.674 1.882 3.485l0.012 0.009c1.16 0.907 2.413 1.173 3.84 0.907 0.547-0.093 1.16-0.373 1.72-0.56-1.173 0-2.16-0.373-3.147-1.16-1.058-0.742-1.792-1.884-1.984-3.201l-0.003-0.026c-0.267-1.253 0-2.413 0.707-3.44 0.16-0.2 0.333-0.373 0.52-0.533 0.4 0.973 0.827 1.933 1.307 2.827 1.080 1.64 2.16 3.067 3.24 4.613 0.467 0.907 0.773 1.8 0.987 2.693 0.715 0.979 1.744 1.692 2.937 1.992l0.036 0.008c1.533 0.533 3.133 0.773 4.773 0.68h0.173c0.177 0.008 0.385 0.013 0.594 0.013 1.548 0 3.035-0.259 4.421-0.735l-0.096 0.029c1.179-0.352 2.166-1.049 2.87-1.973l0.010-0.014h0.093c0.173-0.893 0.467-1.787 0.893-2.693 1.067-1.56 2.16-2.973 3.227-4.613 1.39-2.52 2.432-5.45 2.963-8.554l0.023-0.166c-0.573 0.8-1.92 1.507-4.333 2.053z"></path>
</symbol>
<symbol id="icon-inkscape" viewBox="0 0 32 32">
<path d="M15.829 0.255c-0.993-0.015-1.952 0.371-2.657 1.072l-11.767 12.051c-4.457 4.453 2.885 4.081 5.539 5.767 1.229 0.803-3.94 1.828-2.885 2.885 1.028 1.057 6.2 2.028 7.229 3.057 1.028 1.055-2.085 2.169-1.057 3.224 1 1.057 3.399 0.057 3.827 2.456 0.313 1.771 4.4 0.888 6.229-0.628 1.139-0.972-1.972-0.972-0.944-2.028 2.572-2.599 4.856-1.167 5.799-3.568 0.516-1.284-3.884-2.2-2.712-3.028 2.801-1.969 13.083-2.969 8.34-7.709l-12.196-12.479c-0.747-0.695-1.727-1.076-2.744-1.072zM15.929 1.4c0.705 0.004 1.413 0.268 1.925 0.779l4.656 4.743c0.431 0.428 0.431 1.315 0.172 1.571l-2.312-1.883-0.457 2.769-1.913-1.029-3.115 1.971-1.028-4.14-1.656 3.597-4.143-0.029c-0.8 0-0.685-0.828 0.143-1.656 1.628-1.8 4.8-4.853 5.8-5.911 0.513-0.528 1.22-0.785 1.927-0.779zM28.936 23.101c-0.987 0.033-1.995 0.527-2.252 1.44 0 0.599 4.656 0.943 4.401-0.143-0.188-0.915-1.16-1.336-2.148-1.3zM8.475 25.695c-1.344 0.079-2.784 1.055-1.643 2.016 1.055 0.915 2.656-0.2 3.169-1.484-0.32-0.421-0.915-0.568-1.524-0.531zM26.113 25.797c-1.315 1.2 0.227 2.456 1.512 1.628 0.344-0.231-0.028-1.34-1.512-1.628z"></path>
</symbol>
<symbol id="icon-cool" viewBox="0 0 32 32">
<path d="M16 32c8.837 0 16-7.163 16-16s-7.163-16-16-16-16 7.163-16 16 7.163 16 16 16zM16 3c7.18 0 13 5.82 13 13s-5.82 13-13 13-13-5.82-13-13 5.82-13 13-13zM25 8c0.55 0 1 0.45 1 1v3c0 1.1-0.9 2-2 2h-4c-1.1 0-2-0.9-2-2h-4c0 1.1-0.9 2-2 2h-4c-1.1 0-2-0.9-2-2v-3c0-0.55 0.45-1 1-1h6c0.55 0 1 0.45 1 1v1h4v-1c0-0.55 0.45-1 1-1h6zM16 24c2.913 0 5.462-1.557 6.861-3.884l1.715 1.029c-1.749 2.908-4.935 4.855-8.576 4.855-1.514 0-2.95-0.337-4.236-0.94l1.036-1.727c0.98 0.429 2.061 0.668 3.199 0.668z"></path>
</symbol>
</defs>
</svg>
